<?xml version="1.0" encoding="UTF-8" standalone="no"?>
<!DOCTYPE svg PUBLIC "-//W3C//DTD SVG 1.1//EN" "http://www.w3.org/Graphics/SVG/1.1/DTD/svg11.dtd">
<svg width="40" height="40" viewBox="0 0 40 40" version="1.1" xmlns="http://www.w3.org/2000/svg" xmlns:xlink="http://www.w3.org/1999/xlink" xml:space="preserve" xmlns:serif="http://www.serif.com/" style="fill-rule:evenodd;clip-rule:evenodd;stroke-linejoin:round;stroke-miterlimit:2;">
<g><circle cx="20.086" cy="20.191" r="17.673" style="fill:none;"/>
<g><path d="M19.964,0c5.618,0 10.357,1.928 14.214,5.786c3.88,3.881 5.822,8.619 5.822,14.214c-0,5.619 -1.906,10.298 -5.716,14.035c-4.047,3.977 -8.82,5.965 -14.32,5.965c-5.405,0 -10.095,-1.965 -14.071,-5.894c-3.928,-3.929 -5.893,-8.63 -5.893,-14.106c-0,-5.476 1.965,-10.214 5.893,-14.214c3.858,-3.858 8.547,-5.786 14.071,-5.786Zm0.072,3.608c-4.548,-0 -8.393,1.595 -11.536,4.785c-3.263,3.334 -4.893,7.203 -4.893,11.608c-0,4.428 1.619,8.262 4.856,11.498c3.238,3.239 7.095,4.857 11.571,4.857c4.452,0 8.334,-1.629 11.643,-4.892c3.144,-3.024 4.715,-6.845 4.715,-11.465c-0,-4.547 -1.596,-8.415 -4.785,-11.607c-3.19,-3.19 -7.048,-4.785 -11.571,-4.785Zm5.357,11.429l0,8.178l-2.285,-0l0,9.714l-6.215,-0.001l0,-9.713l-2.285,0l0,-8.178c0,-0.358 0.125,-0.661 0.374,-0.911c0.251,-0.249 0.555,-0.375 0.911,-0.375l8.215,-0c0.333,-0 0.631,0.125 0.893,0.375c0.26,0.25 0.392,0.554 0.392,0.911Zm-8.179,-5.143c-0,-1.88 0.928,-2.821 2.786,-2.821c1.858,-0 2.786,0.94 2.786,2.821c-0,1.857 -0.929,2.786 -2.786,2.786c-1.857,-0 -2.786,-0.929 -2.786,-2.786Z" style="fill:#fff;fill-rule:nonzero;"/></g></g></svg>