<?xml version="1.0" encoding="UTF-8" standalone="no"?><!DOCTYPE svg PUBLIC "-//W3C//DTD SVG 1.1//EN" "http://www.w3.org/Graphics/SVG/1.1/DTD/svg11.dtd"><svg width="40" height="40" viewBox="0 0 64 64" version="1.1" xmlns="http://www.w3.org/2000/svg" xmlns:xlink="http://www.w3.org/1999/xlink" xml:space="preserve" xmlns:serif="http://www.serif.com/" style="fill-rule:evenodd;clip-rule:evenodd;stroke-linejoin:round;stroke-miterlimit:2;"><g><circle cx="32.137" cy="32.306" r="28.276" style="fill:none;"/><g><path d="M31.943,0c8.988,0 16.57,3.085 22.742,9.257c6.208,6.21 9.315,13.791 9.315,22.743c0,8.991 -3.049,16.476 -9.145,22.456c-6.476,6.363 -14.113,9.544 -22.912,9.544c-8.649,0 -16.153,-3.144 -22.514,-9.43c-6.285,-6.286 -9.429,-13.808 -9.429,-22.57c-0,-8.761 3.144,-16.342 9.429,-22.742c6.172,-6.173 13.675,-9.258 22.514,-9.258Zm0.114,5.772c-7.276,0 -13.428,2.553 -18.457,7.657c-5.22,5.334 -7.829,11.525 -7.829,18.572c-0,7.086 2.59,13.22 7.77,18.398c5.181,5.182 11.352,7.771 18.514,7.771c7.123,0 13.334,-2.607 18.629,-7.828c5.029,-4.838 7.543,-10.952 7.543,-18.343c0,-7.276 -2.553,-13.465 -7.656,-18.571c-5.104,-5.104 -11.276,-7.656 -18.514,-7.656Zm8.572,18.285l-0,13.085l-3.656,0l-0,15.542l-9.944,0l-0,-15.541l-3.656,0l-0,-13.086c-0,-0.572 0.2,-1.057 0.599,-1.457c0.401,-0.399 0.887,-0.6 1.457,-0.6l13.144,-0c0.533,-0 1.01,0.2 1.428,0.6c0.417,0.4 0.628,0.886 0.628,1.457Zm-13.087,-8.228c-0,-3.008 1.485,-4.514 4.458,-4.514c2.973,0 4.457,1.504 4.457,4.514c-0,2.971 -1.486,4.457 -4.457,4.457c-2.971,0 -4.458,-1.486 -4.458,-4.457Z" style="fill-rule:nonzero;"/></g></g></svg>