<?xml version="1.0" encoding="UTF-8" standalone="no"?>
<!DOCTYPE svg PUBLIC "-//W3C//DTD SVG 1.1//EN" "http://www.w3.org/Graphics/SVG/1.1/DTD/svg11.dtd">
<svg width="40" height="40" viewBox="0 0 40 40" version="1.1" xmlns="http://www.w3.org/2000/svg" xmlns:xlink="http://www.w3.org/1999/xlink" xml:space="preserve" xmlns:serif="http://www.serif.com/" style="fill-rule:evenodd;clip-rule:evenodd;stroke-linejoin:round;stroke-miterlimit:2;">
<g><path d="M19.963,0C25.557,0 30.321,1.953 34.249,5.858C36.129,7.738 37.558,9.887 38.534,12.304C39.51,14.721 39.999,17.286 39.999,20C39.999,22.738 39.516,25.304 38.553,27.696C37.589,30.088 36.166,32.202 34.286,34.035C32.334,35.963 30.119,37.44 27.643,38.464C25.167,39.487 22.607,39.999 19.964,39.999C17.322,39.999 14.792,39.494 12.375,38.481C9.959,37.47 7.792,36.006 5.875,34.089C3.958,32.173 2.5,30.012 1.5,27.607C0.5,25.202 0,22.667 0,20C0,17.357 0.506,14.816 1.518,12.375C2.529,9.934 4,7.75 5.928,5.821C9.738,1.941 14.416,0 19.963,0ZM20.036,3.608C15.464,3.608 11.619,5.203 8.499,8.393C6.928,9.989 5.719,11.78 4.874,13.768C4.028,15.756 3.606,17.834 3.606,20.001C3.606,22.144 4.028,24.209 4.874,26.196C5.72,28.186 6.928,29.959 8.499,31.519C10.071,33.079 11.844,34.268 13.821,35.091C15.797,35.912 17.869,36.323 20.036,36.323C22.178,36.323 24.254,35.907 26.269,35.073C28.281,34.239 30.094,33.038 31.714,31.466C34.833,28.419 36.392,24.597 36.392,20.001C36.392,17.787 35.987,15.692 35.178,13.716C34.369,11.739 33.19,9.978 31.644,8.429C28.428,5.215 24.559,3.607 20.036,3.607ZM19.785,16.679L17.106,18.072C16.819,17.478 16.469,17.061 16.053,16.822C15.636,16.585 15.249,16.466 14.891,16.466C13.106,16.466 12.213,17.644 12.213,20.001C12.213,21.072 12.439,21.929 12.891,22.572C13.343,23.215 14.01,23.537 14.891,23.537C16.058,23.537 16.879,22.965 17.356,21.822L19.82,23.072C19.296,24.049 18.57,24.817 17.641,25.376C16.714,25.936 15.689,26.216 14.57,26.216C12.784,26.216 11.343,25.669 10.248,24.572C9.153,23.477 8.606,21.954 8.606,20.002C8.606,18.097 9.159,16.586 10.266,15.466C11.373,14.347 12.772,13.787 14.463,13.787C16.94,13.786 18.713,14.751 19.785,16.679ZM31.321,16.679L28.678,18.072C28.392,17.478 28.04,17.061 27.624,16.822C27.206,16.585 26.807,16.466 26.427,16.466C24.642,16.466 23.748,17.644 23.748,20.001C23.748,21.072 23.975,21.929 24.427,22.572C24.879,23.215 25.545,23.537 26.427,23.537C27.593,23.537 28.415,22.965 28.891,21.822L31.391,23.072C30.844,24.049 30.105,24.817 29.178,25.376C28.249,25.936 27.237,26.216 26.142,26.216C24.332,26.216 22.886,25.669 21.804,24.572C20.719,23.477 20.178,21.954 20.178,20.002C20.178,18.097 20.731,16.586 21.839,15.466C22.945,14.347 24.344,13.787 26.034,13.787C28.511,13.786 30.274,14.751 31.321,16.679Z" style="fill:white;fill-rule:nonzero;"/>
    </g>
</svg>
