<?xml version="1.0" encoding="UTF-8" standalone="no"?><!DOCTYPE svg PUBLIC "-//W3C//DTD SVG 1.1//EN" "http://www.w3.org/Graphics/SVG/1.1/DTD/svg11.dtd"><svg width="40" height="40" viewBox="0 0 64 64" version="1.1" xmlns="http://www.w3.org/2000/svg" xmlns:xlink="http://www.w3.org/1999/xlink" xml:space="preserve" xmlns:serif="http://www.serif.com/" style="fill-rule:evenodd;clip-rule:evenodd;stroke-linejoin:round;stroke-miterlimit:2;"><g><circle cx="31.444" cy="32.131" r="29.105" style="fill:none;"/><g><path d="M31.943,0c8.951,0 16.531,3.105 22.742,9.315c6.208,6.172 9.315,13.733 9.315,22.685c0,8.954 -3.049,16.457 -9.145,22.514c-6.437,6.324 -14.076,9.486 -22.912,9.486c-8.649,0 -16.153,-3.143 -22.514,-9.429c-6.285,-6.285 -9.429,-13.807 -9.429,-22.57c-0,-8.723 3.144,-16.285 9.429,-22.685c6.209,-6.211 13.714,-9.316 22.514,-9.316Zm0.114,5.772c-7.276,0 -13.428,2.572 -18.457,7.715c-5.22,5.296 -7.829,11.467 -7.829,18.513c-0,7.125 2.59,13.257 7.77,18.4c5.181,5.182 11.352,7.771 18.514,7.771c7.123,-0 13.334,-2.609 18.629,-7.828c5.029,-4.876 7.543,-10.99 7.543,-18.343c0,-7.313 -2.553,-13.485 -7.656,-18.513c-5.067,-5.145 -11.239,-7.715 -18.514,-7.715Zm-14.286,21.713c0.609,-3.924 2.189,-6.962 4.742,-9.114c2.552,-2.152 5.656,-3.228 9.314,-3.228c5.027,0 9.029,1.62 12,4.856c2.971,3.238 4.457,7.391 4.457,12.457c0,4.915 -1.543,9 -4.627,12.256c-3.088,3.256 -7.086,4.886 -12.002,4.886c-3.619,0 -6.743,-1.085 -9.371,-3.257c-2.629,-2.172 -4.209,-5.257 -4.743,-9.257l8.059,0c0.19,3.886 2.533,5.829 7.029,5.829c2.246,0 4.057,-0.972 5.428,-2.914c1.373,-1.942 2.059,-4.534 2.059,-7.771c0,-3.391 -0.629,-5.971 -1.885,-7.743c-1.258,-1.771 -3.066,-2.657 -5.43,-2.657c-4.268,0 -6.667,1.885 -7.2,5.656l2.343,0l-6.342,6.343l-6.343,-6.343l2.512,0.001Z" style="fill-rule:nonzero;"/></g></g></svg>